<svg width="157" height="112" viewBox="0 0 157 112" fill="none" xmlns="http://www.w3.org/2000/svg">
<g id="Layer_1">
<g id="Group">
<path id="Vector" d="M96.7905 58.4215C96.6554 58.4215 96.5395 58.5171 96.5202 58.6415C96.2789 59.9709 95.0145 66.838 94.3582 70.3386C93.5378 74.7286 92.7077 77.9613 91.868 82.4087C91.5494 81.9496 91.5398 81.5479 91.4626 81.1558C90.0727 73.3704 88.7021 66.4268 87.3412 58.6988C87.3122 58.5362 87.1674 58.4119 87.0033 58.4119H81.8105C81.5982 58.4119 81.4438 58.5936 81.4824 58.7945C83.4996 70.0134 87.4956 92.4225 88.0554 95.5309C88.094 95.7413 88.2774 95.8943 88.4898 95.8848H92.476C92.6884 95.8752 92.8718 95.7222 92.9104 95.5117C93.4798 92.4129 97.6881 69.6882 99.7344 58.7275C99.7633 58.5554 99.6282 58.4023 99.4545 58.4023H96.8098L96.7905 58.4215Z" fill="white"/>
<path id="Vector_2" d="M108.188 61.4046H114.915C115.012 61.4046 115.099 61.3472 115.147 61.2611L116.305 58.9274C116.344 58.8605 116.286 58.7744 116.209 58.7744H102.551C102.377 58.7744 102.242 58.9179 102.242 59.0996C102.271 66.072 102.242 91.3217 102.242 95.3578C102.242 95.6639 102.474 95.903 102.763 95.903H114.018C114.201 95.903 114.365 95.7978 114.442 95.6256L115.514 93.4449C115.552 93.3684 115.494 93.2728 115.407 93.2728H108.246C108.024 93.2728 107.85 93.0911 107.85 92.8615C107.85 90.9678 107.869 83.0868 107.85 79.988C107.85 79.7967 107.995 79.6437 108.178 79.6437H113.361C113.545 79.6437 113.689 79.4907 113.689 79.2994V77.3578C113.689 77.1665 113.545 77.0135 113.361 77.0135H108.168C107.985 77.0135 107.84 76.8509 107.84 76.6596C107.869 71.428 107.86 67.0953 107.84 61.7489C107.84 61.5481 107.995 61.3855 108.178 61.3855L108.188 61.4046Z" fill="white"/>
<path id="Vector_3" d="M144.912 95.8665C149.564 93.6858 152.151 90.0705 152.17 85.8048C152.17 85.011 152.093 84.2363 151.958 83.4998C151.446 80.7549 150.076 78.6221 148.512 76.6327C146.369 73.9164 143.618 71.7836 141.437 69.096C140.24 67.6231 139.458 65.892 139.787 63.5201C140.153 60.8612 142.064 58.977 144.777 58.6231C146.128 58.451 146.813 58.4223 148.367 58.4892C148.541 58.4892 148.715 58.4605 148.802 58.2884C148.888 58.1162 149.381 57.1789 149.641 56.672C149.825 56.3181 149.757 56.1556 149.516 56.0886C149.197 55.993 148.386 55.8782 147.769 55.8208C146.138 55.6869 144.13 55.926 142.325 56.4425C136.572 58.1162 133.098 62.6975 133.107 67.9483C133.117 71.7549 134.806 74.3659 137.036 76.6423C139.275 78.9281 141.649 81.0992 143.638 83.6337C144.738 85.0397 145.52 86.656 145.529 88.7506C145.529 91.9451 143.348 94.4318 139.893 95.197C138.204 95.57 135.906 95.7995 134.517 95.7421L134.111 96.4307L133.329 97.9706C133.493 97.9993 133.686 97.9802 133.822 97.9993C137.306 98.3819 141.022 97.6932 144.912 95.8665Z" fill="white"/>
<path id="Vector_4" d="M78.4959 49.1054C71.4886 49.0862 65.4078 48.9715 61.0354 48.8663L61.0644 48.9332C38.0346 48.1968 17.5916 46.0735 0.410958 42.8599C0.32409 42.8408 0.256526 42.946 0.314438 43.0129L2.79501 46.59C2.79501 46.59 2.83362 46.6282 2.86258 46.6282C24.9561 49.5262 50.3313 51.0947 78.4863 51.1234C106.651 51.0947 132.016 49.5358 154.11 46.6282C154.139 46.6282 154.168 46.6091 154.178 46.59L156.658 43.0129C156.706 42.9364 156.648 42.8408 156.562 42.8599C139.381 46.0735 118.938 48.1968 95.9082 48.9332L95.9372 48.8663C91.5744 48.981 85.484 49.0862 78.4766 49.1054H78.4959Z" fill="white"/>
<path id="Vector_5" d="M123.872 92.8353C122.414 93.1796 121.015 93.3135 119.673 93.2657C119.663 93.2657 119.654 93.2657 119.635 93.2657L118.447 95.6185C118.553 95.695 118.737 95.695 118.901 95.7142C121.806 96.0585 124.905 95.4368 128.148 93.8109C132.028 91.8598 134.18 88.6462 134.199 84.8491C134.199 84.1414 134.132 83.4528 134.016 82.7928C133.591 80.3444 132.452 78.4506 131.14 76.6717C129.354 74.2519 127.057 72.3486 125.242 69.9575C124.248 68.6472 123.592 67.0978 123.862 64.9841C124.161 62.6122 125.735 60.9862 127.993 60.6706C129.209 60.4985 130.918 60.5846 131.091 60.5846C131.265 60.5846 131.42 60.4507 131.497 60.3168C131.564 60.1829 131.999 59.3029 132.192 58.9395C132.462 58.423 132.337 58.1935 130.802 58.0787C129.441 57.9544 127.694 58.203 126.188 58.6717C121.391 60.1637 118.283 64.2477 118.293 68.9342C118.293 72.3295 119.712 74.6536 121.575 76.6908C123.447 78.728 125.426 80.66 127.076 82.9172C127.993 84.1701 128.649 85.6047 128.649 87.4793C128.649 90.3295 126.381 92.2519 123.872 92.8353Z" fill="white"/>
<path id="Vector_6" d="M78.4961 103.251C50.2446 103.318 24.7922 105.278 2.59251 108.196C2.56356 108.196 2.5346 108.215 2.52495 108.243L0.0154191 111.849C-0.0328411 111.926 0.0250712 112.021 0.111939 112.002C21.607 107.976 48.1501 105.259 78.4865 105.173C108.823 105.259 135.366 107.976 156.861 112.002C156.948 112.021 157.015 111.916 156.958 111.849L154.448 108.234C154.448 108.234 154.409 108.196 154.38 108.186C132.19 105.269 106.728 103.318 78.4768 103.241L78.4961 103.251Z" fill="white"/>
<path id="Vector_7" d="M79.9628 69.5831C80.899 62.649 76.7101 59.4546 69.8185 58.6607C67.9557 58.4503 65.8322 58.4503 63.9694 58.4025C63.4385 58.3929 63.0138 58.8042 63.0235 59.3302C63.0621 63.4524 63.0428 67.5651 63.0428 71.6873C63.0428 79.3579 63.0524 87.9179 63.0235 95.6458C63.0235 95.7893 63.1393 95.8945 63.2744 95.8945H68.805C68.9498 95.8945 69.0657 95.7797 69.056 95.6458C69.0174 92.0305 69.0077 82.5236 69.0077 79.5013C69.6448 79.8839 71.0733 81.9306 71.9613 85.0103C73.0809 88.903 73.6214 94.0582 73.7565 95.3111C73.7855 95.5597 73.8241 95.751 73.911 95.8945H79.403C79.4609 95.7797 79.4802 95.6171 79.4512 95.3876C78.8818 90.9498 77.2988 83.4322 74.3646 79.9795C74.0944 79.6639 73.7855 79.4248 73.7083 79.31C73.66 79.2335 73.6986 79.1379 73.9013 78.9466C76.8548 76.106 79.4126 73.6767 79.9628 69.5831ZM71.6717 74.92C70.803 75.7425 69.944 76.3164 69.2683 76.7085C69.1622 76.7755 69.0174 76.6894 69.0174 76.5651C69.0174 70.31 68.9981 62.5534 69.0174 61.9987C69.027 61.7596 69.0174 61.377 69.0174 61.1475C69.0174 61.0422 69.1043 60.9657 69.2104 60.9849C70.1081 61.1283 72.3184 61.6352 73.8145 63.5672C76.2082 66.6565 74.6252 70.6352 74.4225 71.1517C73.6697 73.0359 72.3473 74.2888 71.662 74.9296L71.6717 74.92Z" fill="white"/>
<path id="Vector_8" d="M8.19662 97.7574H23.1862C23.3407 97.7574 23.4758 97.6714 23.5434 97.5375L24.6919 95.2803C24.7692 95.1368 24.663 94.9551 24.4893 94.9551H15.1075C14.9048 94.9551 14.7407 94.7925 14.7407 94.6012C14.7407 92.5258 14.7407 81.9477 14.7407 79.8627C14.7407 79.6618 14.9048 79.4992 15.1075 79.4992H20.6574C20.7925 79.4992 20.9084 79.3845 20.9084 79.2506V76.9456C20.9084 76.8117 20.7925 76.6969 20.6574 76.6969H15.1171C14.9144 76.6969 14.7407 76.5343 14.7407 76.3239L14.76 58.4961C14.76 58.2952 14.9241 58.1326 15.1268 58.1326H23.2924C23.3793 58.1326 23.4661 58.0848 23.4951 58.0083L24.6726 55.6268C24.7306 55.4929 24.6244 55.3398 24.47 55.3398H8.19662C7.99393 55.3398 7.82019 55.5024 7.82019 55.7033C7.84915 63.7947 7.82019 93.7596 7.82019 97.3844C7.82019 97.5853 7.98428 97.7479 8.18697 97.7479L8.19662 97.7574Z" fill="white"/>
<path id="Vector_9" d="M52.7916 61.0788H60.3974C60.4843 61.0788 60.5615 61.0118 60.5615 60.9162V58.5825C60.5615 58.4964 60.4939 58.4199 60.3974 58.4199H46.7205C46.624 58.4199 46.5468 58.4869 46.5468 58.5825C46.5757 64.3402 46.5564 93.1 46.5661 95.6154C46.5661 95.7684 46.6915 95.8928 46.8556 95.8928H60.3974C60.4843 95.8928 60.5615 95.8258 60.5615 95.7302V93.3965C60.5615 93.3104 60.4939 93.2339 60.3974 93.2339H52.6951C52.6179 93.2339 52.5503 93.1765 52.5503 93.1C52.5793 89.896 52.5696 82.7801 52.5503 79.6144C52.5503 79.5379 52.6082 79.4805 52.6951 79.4805H58.6311C58.7276 79.4805 58.8048 79.404 58.8048 79.3083V76.9938C58.8048 76.8981 58.7276 76.8216 58.6311 76.8216H52.6951C52.6082 76.8216 52.5407 76.7547 52.5407 76.6686C52.5696 70.9396 52.5696 67.0086 52.5407 61.3083C52.5407 61.1744 52.6468 61.0597 52.7916 61.0597V61.0788Z" fill="white"/>
<path id="Vector_10" d="M40.852 58.4199C40.8038 58.4199 40.7555 58.4582 40.7459 58.506C40.5914 59.3763 39.2981 66.693 38.6514 70.3466C38.024 73.8567 36.8464 79.7483 36.4024 81.9767C36.3638 82.168 36.0936 82.168 36.0646 81.9767C35.4662 78.7344 32.1942 60.6484 31.8274 58.6208C31.8081 58.5156 31.7116 58.439 31.5957 58.439H26.5863C26.4029 58.439 26.2678 58.6016 26.2968 58.7834C26.789 61.6526 30.5533 83.5357 32.5609 95.5006C32.5995 95.7493 32.8119 95.9215 33.0532 95.9215H36.7499C36.9912 95.9215 37.2036 95.7493 37.2422 95.5006C37.9468 91.541 43.4388 60.8493 43.8442 58.6303C43.8635 58.5251 43.7862 58.439 43.6801 58.439H40.8327L40.852 58.4199Z" fill="white"/>
</g>
<g id="Clip path group">
<mask id="mask0_752_20" style="mask-type:luminance" maskUnits="userSpaceOnUse" x="22" y="-18" width="113" height="69">
<g id="clippath-1">
<path id="Vector_11" d="M134.529 48.7308C134.529 48.7308 105.033 50.1176 78.6631 50.1176C47.0334 50.1176 22.3242 47.9465 22.3242 47.9465V-17.3105H134.539V48.7308H134.529Z" fill="white"/>
</g>
</mask>
<g mask="url(#mask0_752_20)">
<g id="Group_2">
<g id="Group_3">
<path id="Vector_12" d="M78.5005 0.0957031C78.5005 0.0957031 78.4908 0.0957031 78.4812 0.0957031C78.2785 0.0957031 78.0758 0.172217 77.9213 0.325246L58.1926 20.2285C57.8837 20.5441 57.8837 21.0415 58.1926 21.3571L77.9213 41.2604C78.0758 41.4134 78.2785 41.4899 78.4812 41.4899C78.4812 41.4899 78.4908 41.4899 78.5005 41.4899C78.5005 41.4899 78.5101 41.4899 78.5198 41.4899C78.7225 41.4899 78.9252 41.4134 79.0796 41.2604L98.8084 21.3571C99.1172 21.0415 99.1172 20.5441 98.8084 20.2285L79.0796 0.325246C78.9252 0.172217 78.7225 0.0957031 78.5198 0.0957031C78.5198 0.0957031 78.5101 0.0957031 78.5005 0.0957031ZM78.5005 30.6918C78.2399 30.6918 77.9793 30.5962 77.7766 30.3954L68.9643 21.5006C68.5782 21.1084 68.5782 20.4772 68.9643 20.0946L77.8538 11.1233C78.0275 10.9416 78.2688 10.8555 78.5005 10.8651C78.7321 10.8651 78.9734 10.9416 79.1472 11.1233L88.0367 20.0946C88.4228 20.4868 88.4228 21.118 88.0367 21.5006L79.2244 30.3954C79.0217 30.5962 78.7611 30.6918 78.5005 30.6918Z" fill="white"/>
<path id="Vector_13" d="M78.5022 42.514C78.3477 42.514 78.1836 42.5618 78.0678 42.6861L71.7457 49.0655C67.3348 49.0368 62.972 48.989 58.6479 48.9125C55.0477 48.8551 51.4572 48.7786 47.9149 48.6925L39.5852 39.7116C38.7551 38.9656 39.5562 38.6404 40.367 37.8179L54.2176 23.988C54.5651 23.6437 54.4589 23.0507 53.9956 22.8689C47.3357 20.2101 31.6415 13.2281 26.9024 12.0039C26.3908 11.87 25.9275 12.1569 25.7441 12.5778V13.4099L26.0627 14.1368L39.4693 45.3068L41.255 49.4577H41.2357L42.8958 53.3216C54.4879 53.599 66.3695 53.7329 78.5118 53.7042C90.6541 53.7233 102.536 53.599 114.128 53.3216L115.788 49.4577H115.769L117.554 45.3068L130.961 14.1368L131.279 13.4099V12.5778C131.096 12.1569 130.633 11.87 130.121 12.0039C125.382 13.2281 109.688 20.2101 103.028 22.8689C102.574 23.0507 102.459 23.6437 102.806 23.988L116.657 37.8179C117.477 38.6404 118.269 38.9656 117.438 39.7116L109.109 48.6925C105.557 48.7786 101.976 48.8551 98.3757 48.9125C94.0419 48.989 89.6792 49.0368 85.2779 49.0655L78.9558 42.6861C78.84 42.5618 78.6759 42.514 78.5215 42.514H78.5022Z" fill="white"/>
</g>
</g>
</g>
</g>
</g>
</svg>
